<?xml version="1.0" encoding="utf-8"?>
<!-- Generator: Adobe Illustrator 17.1.0, SVG Export Plug-In . SVG Version: 6.00 Build 0)  -->
<!DOCTYPE svg PUBLIC "-//W3C//DTD SVG 1.1//EN" "http://www.w3.org/Graphics/SVG/1.1/DTD/svg11.dtd">
<svg version="1.1" id="Layer_1" xmlns="http://www.w3.org/2000/svg" xmlns:xlink="http://www.w3.org/1999/xlink" x="0px" y="0px"
	 viewBox="0 0 200 70" enable-background="new 0 0 200 70" xml:space="preserve">
<g>
	<g>
		
			<linearGradient id="SVGID_1_" gradientUnits="userSpaceOnUse" x1="21.28" y1="73.1193" x2="73.532" y2="20.8673" gradientTransform="matrix(1 0 0 1 -1.9997 1.260884e-04)">
			<stop  offset="0" style="stop-color:#58BBEA"/>
			<stop  offset="0.1917" style="stop-color:#5DB3E4"/>
			<stop  offset="0.4905" style="stop-color:#699DD4"/>
			<stop  offset="0.8574" style="stop-color:#7D79BA"/>
			<stop  offset="1" style="stop-color:#8669AE"/>
		</linearGradient>
		<path fill="url(#SVGID_1_)" d="M59.138,11.754c-0.282-0.303-0.563-0.607-0.858-0.902c-0.294-0.295-0.598-0.576-0.901-0.859
			l-0.859,0.859l-0.901,0.901l-2.854,2.854l-0.095,0.095l-1.665,1.665l-2.885,2.885l0,0l-1.76,1.76
			c0.312,0.273,0.627,0.541,0.923,0.837c0.296,0.296,0.564,0.612,0.838,0.923c2.971,3.39,4.61,7.679,4.61,12.228
			c0,4.967-1.934,9.637-5.447,13.151c-3.513,3.512-8.183,5.447-13.151,5.447c-4.549,0-8.838-1.639-12.228-4.61l-0.481,0.481
			l-1.28,1.28c3.863,3.439,8.774,5.339,13.988,5.339c5.633,0,10.928-2.194,14.911-6.177c3.983-3.983,6.177-9.278,6.177-14.91
			c0-5.214-1.9-10.126-5.339-13.988l2.885-2.885c4.203,4.631,6.504,10.575,6.504,16.874c0,6.714-2.615,13.026-7.362,17.774
			c-4.748,4.748-11.061,7.363-17.775,7.363c-6.298,0-12.242-2.3-16.873-6.504l-1.76,1.76c5.103,4.673,11.671,7.233,18.634,7.233
			c7.379,0,14.317-2.873,19.535-8.092C58.885,49.317,61.758,42.38,61.758,35c0-6.964-2.561-13.531-7.233-18.634l2.853-2.853h0
			C68.851,25.916,68.57,45.338,56.52,57.388c-5.98,5.98-13.931,9.274-22.389,9.274c-8.041,0-15.62-2.982-21.487-8.415l-0.901,0.901
			l-0.859,0.859c6.338,5.902,14.541,9.144,23.247,9.144c9.122,0,17.698-3.552,24.149-10.003
			C71.301,46.128,71.581,25.128,59.138,11.754z"/>
		<g>
			
				<linearGradient id="SVGID_2_" gradientUnits="userSpaceOnUse" x1="-1.9869" y1="49.849" x2="48.9949" y2="-1.1328" gradientTransform="matrix(1 0 0 1 -1.9997 1.260884e-04)">
				<stop  offset="0" style="stop-color:#ABCB37"/>
				<stop  offset="0.2693" style="stop-color:#A9CB38"/>
				<stop  offset="0.424" style="stop-color:#A0C93B"/>
				<stop  offset="0.5496" style="stop-color:#92C741"/>
				<stop  offset="0.6598" style="stop-color:#7EC449"/>
				<stop  offset="0.7598" style="stop-color:#65C054"/>
				<stop  offset="0.8524" style="stop-color:#45BB61"/>
				<stop  offset="0.9376" style="stop-color:#20B570"/>
				<stop  offset="1" style="stop-color:#00B07D"/>
			</linearGradient>
			<path fill="url(#SVGID_2_)" d="M52.67,14.701l0.095-0.095c-5.103-4.673-11.671-7.233-18.633-7.233
				c-7.379,0-14.317,2.873-19.535,8.092C9.378,20.683,6.504,27.62,6.504,34.999c0,6.963,2.561,13.531,7.233,18.634l-2.853,2.853
				C-0.589,44.083-0.307,24.662,11.743,12.611c5.98-5.98,13.931-9.274,22.389-9.274c8.041,0,15.62,2.982,21.487,8.415l-2.854,2.854
				l2.854-2.854l0.901-0.901l0.859-0.859C51.041,4.09,42.837,0.848,34.131,0.848c-9.122,0-17.698,3.552-24.149,10.003
				C-3.038,23.872-3.319,44.872,9.125,58.246c0.282,0.303,0.563,0.607,0.858,0.902c0.294,0.294,0.598,0.576,0.901,0.859l0.859-0.859
				l0.901-0.901l2.854-2.854l1.76-1.76l2.885-2.885l1.28-1.28l0.481-0.481c-0.312-0.273-0.627-0.541-0.923-0.837
				c-0.296-0.296-0.564-0.611-0.837-0.923c-2.971-3.39-4.61-7.679-4.61-12.228c0-4.968,1.934-9.638,5.447-13.152
				c3.513-3.512,8.184-5.447,13.151-5.447c4.55,0,8.839,1.64,12.228,4.611l1.76-1.76c-3.863-3.439-8.774-5.34-13.989-5.34
				c-5.632,0-10.928,2.194-14.911,6.177c-3.983,3.983-6.177,9.278-6.177,14.91c0,5.215,1.9,10.126,5.339,13.989l-2.885,2.885
				C11.294,47.242,8.994,41.298,8.994,35c0-6.715,2.615-13.027,7.363-17.775c4.748-4.748,11.06-7.363,17.775-7.363
				c6.298,0,12.242,2.301,16.873,6.504l-2.885,2.885l0,0l2.885-2.885L52.67,14.701z"/>
		</g>
	</g>
	<g>
		<path fill="#4E4E50" d="M96.317,25.307c3.32,0,5.295,1.314,6.914,3.239c0.154,0.183,0.43,0.201,0.609,0.043l0.728-0.64
			c0.175-0.154,0.194-0.419,0.047-0.6c-1.807-2.212-4.506-3.884-8.298-3.884c-6.753,0-11.132,5.183-11.132,11.534
			c0,6.353,4.38,11.534,11.132,11.534c3.793,0,6.491-1.67,8.298-3.881c0.148-0.181,0.129-0.445-0.046-0.599l-0.729-0.642
			c-0.18-0.158-0.456-0.141-0.61,0.043c-1.618,1.925-3.593,3.241-6.913,3.241c-5.783,0-9.126-4.613-9.126-9.696
			C87.191,29.92,90.533,25.307,96.317,25.307z"/>
		<path fill="#4E4E50" d="M152.297,25.307c3.32,0,5.295,1.314,6.914,3.239c0.154,0.183,0.43,0.201,0.609,0.043l0.728-0.64
			c0.176-0.154,0.194-0.419,0.047-0.6c-1.807-2.212-4.506-3.884-8.298-3.884c-6.753,0-11.132,5.183-11.132,11.534
			c0,6.353,4.38,11.534,11.132,11.534c3.793,0,6.491-1.67,8.298-3.881c0.148-0.181,0.129-0.445-0.046-0.599l-0.729-0.642
			c-0.18-0.158-0.456-0.141-0.61,0.043c-1.618,1.925-3.593,3.241-6.913,3.241c-5.783,0-9.126-4.613-9.126-9.696
			C143.171,29.92,146.513,25.307,152.297,25.307z"/>
		<path fill="#4E4E50" d="M110.586,23.601c-0.238,0-0.43,0.193-0.43,0.43v0.572l0,20.793c0,0.001,0,0.002,0,0.003h0v0.572
			c0,0.238,0.193,0.43,0.43,0.43h1.145c0.238,0,0.43-0.193,0.43-0.43v-0.572h0c0-0.001,0-0.002,0-0.003l0-20.793v-0.572
			c0-0.238-0.193-0.43-0.43-0.43H110.586z"/>
		<path fill="#4E4E50" d="M119.586,45.396c0,0.001,0,0.002,0,0.003h0v0.572c0,0.238,0.193,0.43,0.43,0.43h1.145
			c0.238,0,0.43-0.193,0.43-0.43v-0.56c0-0.005,0.001-0.009,0.001-0.014l0-9.158l8.257,0l4.714,9.593
			c0.012,0.021,0.024,0.04,0.036,0.06l0.086,0.172c0.103,0.207,0.314,0.338,0.545,0.338h1.273c0.247,0,0.409-0.259,0.301-0.481
			l-0.463-0.949c-0.001-0.003-0.003-0.006-0.004-0.009l-0.158-0.322l-0.001-0.001l0,0l-4.189-8.568
			c3.277-0.6,5.049-2.976,5.049-6.017c0-3.543-2.441-6.185-6.854-6.185l-10.167,0c-0.238,0-0.43,0.193-0.43,0.43L119.586,45.396z
			 M121.592,34.432l0-8.759l8.993,0c2.775,0,4.446,1.838,4.446,4.38s-1.671,4.38-4.446,4.38L121.592,34.432z"/>
		<path fill="#4E4E50" d="M179.943,44.327l-11.968,0V24.603c0-0.005-0.001-0.009-0.001-0.013v-0.559c0-0.238-0.193-0.43-0.43-0.43
			h-1.145c-0.238,0-0.43,0.193-0.43,0.43v0.572V45.13l0,0.572c0,0.238,0.193,0.43,0.43,0.43h0.573h1.002l11.97,0h0.471
			c0.238,0,0.43-0.193,0.43-0.43v-0.945c0-0.238-0.193-0.43-0.43-0.43H179.943z"/>
		<path fill="#4E4E50" d="M185.19,45.13v0.572c0,0.238,0.193,0.43,0.43,0.43h0.573l1.002,0l11.902,0c0,0,0.001,0,0.001,0v0h0.471
			c0.238,0,0.43-0.193,0.43-0.43v-0.471v0v0v-0.474c0-0.238-0.193-0.43-0.43-0.43h-0.471v0c0,0-0.001,0-0.001,0l-11.901,0v-8.792
			l6.887,0c0.001,0,0.002,0,0.003,0h0.469c0.238,0,0.43-0.193,0.43-0.43v-0.945c0-0.238-0.193-0.43-0.43-0.43h-0.471l0,0l-6.887,0
			l0-8.056l11.868,0c0.012,0,0.022-0.003,0.034-0.003v0.003h0.471c0.238,0,0.43-0.193,0.43-0.43v-0.945
			c0-0.238-0.193-0.43-0.43-0.43h-0.471v0.003c-0.012,0-0.022-0.003-0.034-0.003l-13.444,0c-0.238,0-0.43,0.193-0.43,0.43
			L185.19,45.13z"/>
	</g>
</g>
</svg>
