<?xml version="1.0" encoding="UTF-8" standalone="no"?>
<svg width="69px" height="70px" viewBox="0 0 69 70" version="1.1" xmlns="http://www.w3.org/2000/svg" xmlns:xlink="http://www.w3.org/1999/xlink">
    <!-- Generator: Sketch 48.2 (47327) - http://www.bohemiancoding.com/sketch -->
    <title>Group</title>
    <desc>Created with Sketch.</desc>
    <defs>
        <linearGradient x1="14.6331131%" y1="106.708182%" x2="105.698157%" y2="18.3820043%" id="linearGradient-1">
            <stop stop-color="#58BBEA" offset="0%"></stop>
            <stop stop-color="#5DB3E4" offset="19.17%"></stop>
            <stop stop-color="#699DD4" offset="49.05%"></stop>
            <stop stop-color="#7D79BA" offset="85.74%"></stop>
            <stop stop-color="#8669AE" offset="100%"></stop>
        </linearGradient>
        <linearGradient x1="-6.94733865%" y1="82.8295375%" x2="81.9032198%" y2="-3.34805171%" id="linearGradient-2">
            <stop stop-color="#ABCB37" offset="0%"></stop>
            <stop stop-color="#A9CB38" offset="26.93%"></stop>
            <stop stop-color="#A0C93B" offset="42.4%"></stop>
            <stop stop-color="#92C741" offset="54.96%"></stop>
            <stop stop-color="#7EC449" offset="65.98%"></stop>
            <stop stop-color="#65C054" offset="75.98%"></stop>
            <stop stop-color="#45BB61" offset="85.24%"></stop>
            <stop stop-color="#20B570" offset="93.76%"></stop>
            <stop stop-color="#00B07D" offset="100%"></stop>
        </linearGradient>
    </defs>
    <g id="Page-1" stroke="none" stroke-width="1" fill="none" fill-rule="evenodd">
        <g id="logo-with-text" fill-rule="nonzero">
            <g id="Group">
                <path d="M59.138,11.754 C58.856,11.451 58.575,11.147 58.28,10.852 C57.986,10.557 57.682,10.276 57.379,9.993 L56.52,10.852 L55.619,11.753 L52.765,14.607 L52.67,14.702 L51.005,16.367 L48.12,19.252 L46.36,21.012 C46.672,21.285 46.987,21.553 47.283,21.849 C47.579,22.145 47.847,22.461 48.121,22.772 C51.092,26.162 52.731,30.451 52.731,35 C52.731,39.967 50.797,44.637 47.284,48.151 C43.771,51.663 39.101,53.598 34.133,53.598 C29.584,53.598 25.295,51.959 21.905,48.988 L21.424,49.469 L20.144,50.749 C24.007,54.188 28.918,56.088 34.132,56.088 C39.765,56.088 45.06,53.894 49.043,49.911 C53.026,45.928 55.22,40.633 55.22,35.001 C55.22,29.787 53.32,24.875 49.881,21.013 L52.766,18.128 C56.969,22.759 59.27,28.703 59.27,35.002 C59.27,41.716 56.655,48.028 51.908,52.776 C47.16,57.524 40.847,60.139 34.133,60.139 C27.835,60.139 21.891,57.839 17.26,53.635 L15.5,55.395 C20.603,60.068 27.171,62.628 34.134,62.628 C41.513,62.628 48.451,59.755 53.669,54.536 C58.885,49.317 61.758,42.38 61.758,35 C61.758,28.036 59.197,21.469 54.525,16.366 L57.378,13.513 C68.851,25.916 68.57,45.338 56.52,57.388 C50.54,63.368 42.589,66.662 34.131,66.662 C26.09,66.662 18.511,63.68 12.644,58.247 L11.743,59.148 L10.884,60.007 C17.222,65.909 25.425,69.151 34.131,69.151 C43.253,69.151 51.829,65.599 58.28,59.148 C71.301,46.128 71.581,25.128 59.138,11.754 Z" id="Shape" fill="url(#linearGradient-1)"></path>
                <path d="M52.67,14.701 L52.765,14.606 C47.662,9.933 41.094,7.373 34.132,7.373 C26.753,7.373 19.815,10.246 14.597,15.465 C9.378,20.683 6.504,27.62 6.504,34.999 C6.504,41.962 9.065,48.53 13.737,53.633 L10.884,56.486 C-0.589,44.083 -0.307,24.662 11.743,12.611 C17.723,6.631 25.674,3.337 34.132,3.337 C42.173,3.337 49.752,6.319 55.619,11.752 L52.765,14.606 L55.619,11.752 L56.52,10.851 L57.379,9.992 C51.041,4.09 42.837,0.848 34.131,0.848 C25.009,0.848 16.433,4.4 9.982,10.851 C-3.038,23.872 -3.319,44.872 9.125,58.246 C9.407,58.549 9.688,58.853 9.983,59.148 C10.277,59.442 10.581,59.724 10.884,60.007 L11.743,59.148 L12.644,58.247 L15.498,55.393 L17.258,53.633 L20.143,50.748 L21.423,49.468 L21.904,48.987 C21.592,48.714 21.277,48.446 20.981,48.15 C20.685,47.854 20.417,47.539 20.144,47.227 C17.173,43.837 15.534,39.548 15.534,34.999 C15.534,30.031 17.468,25.361 20.981,21.847 C24.494,18.335 29.165,16.4 34.132,16.4 C38.682,16.4 42.971,18.04 46.36,21.011 L48.12,19.251 C44.257,15.812 39.346,13.911 34.131,13.911 C28.499,13.911 23.203,16.105 19.22,20.088 C15.237,24.071 13.043,29.366 13.043,34.998 C13.043,40.213 14.943,45.124 18.382,48.987 L15.497,51.872 C11.294,47.242 8.994,41.298 8.994,35 C8.994,28.285 11.609,21.973 16.357,17.225 C21.105,12.477 27.417,9.862 34.132,9.862 C40.43,9.862 46.374,12.163 51.005,16.366 L48.12,19.251 L51.005,16.366 L52.67,14.701 Z" id="Shape" fill="url(#linearGradient-2)"></path>
            </g>
        </g>
    </g>
</svg>